<?xml version="1.0"?>
<svg xmlns="http://www.w3.org/2000/svg" viewBox="0 0 512 512" width="512" height="512"><g id="Out_line" data-name="Out line"><path d="M264,136a8.00917,8.00917,0,0,1-8,8v16a24.02687,24.02687,0,0,0,24-24Z"/><path d="M170.34326,93.65674A7.99877,7.99877,0,0,0,176,96h28.68652l45.65674,45.65674,11.31348-11.31348L216,84.68652V56a7.99877,7.99877,0,0,0-2.34326-5.65674l-32-32A7.99981,7.99981,0,0,0,168,24V48H144a7.99981,7.99981,0,0,0-5.65674,13.65674ZM176,64a7.99977,7.99977,0,0,0,8-8V43.314l16,16V80H179.314l-16-16Z"/><path d="M203.189,117.3335A55.95337,55.95337,0,1,0,237.3335,83.189l5.333,15.085a39.95307,39.95307,0,1,1-24.39257,24.39257Z"/><path d="M172.03027,109.60254a87.9164,87.9164,0,1,0,57.57227-57.57227l4.79492,15.26465a71.91654,71.91654,0,1,1-47.10254,47.10254Z"/><path d="M382.76855,289.82373l-26.44726-8.81592-30.66455-30.66455a7.999,7.999,0,0,0-10.92481-.36377l-10.41357,9.11194-7.64478-10.193a120.01523,120.01523,0,1,0-83.53149-225.0166l5.71582,14.94433a103.89634,103.89634,0,1,1-60.03174,60.03174l-14.94433-5.71582a120.09781,120.09781,0,0,0,71.44464,155.75635l-7.64478,10.193-10.41363-9.11194a8.001,8.001,0,0,0-10.92481.36377l-30.66455,30.66455-26.44726,8.81592A71.90671,71.90671,0,0,0,80,358.12842V496H96V358.12842a55.92832,55.92832,0,0,1,38.291-53.126l23.89044-7.96362,60.55047,52.98169a7.9996,7.9996,0,0,0,10.92481-.36377l1.09991-1.09986,8.79419,13.19129-15.42193,84.82068A7.992,7.992,0,0,0,224,448v48h16V448.72119L254.67676,368h2.64648L272,448.72119V496h16V448a7.992,7.992,0,0,0-.12891-1.43115l-15.42187-84.82068,8.79419-13.19129,1.09985,1.09986a7.9996,7.9996,0,0,0,10.92481.36377l60.55053-52.98169,23.89038,7.96362A55.92832,55.92832,0,0,1,416,358.12842V496h16V358.12842A71.90671,71.90671,0,0,0,382.76855,289.82373Zm-150.93487-36.2688a120.64848,120.64848,0,0,0,48.33258,0l12.0769,16.1023L256,301.36987l-36.2431-31.71264Zm-8.19843,79.49585-51.93164-45.44043,20.66114-20.66113,51.93164,45.44043ZM259.71875,352h-7.4375l-9.98712-14.98071L256,323.31348l13.70581,13.70581Zm28.646-18.94922-20.66114-20.66113,51.93164-45.44043,20.66114,20.66113Z"/><rect x="136" y="376" width="16" height="120"/><rect x="360" y="376" width="16" height="120"/></g></svg>
