<svg id="Layer_3" enable-background="new 0 0 64 64" height="512" viewBox="0 0 64 64" width="512" xmlns="http://www.w3.org/2000/svg"><g><path d="m44 25h-23v2h23c.551 0 1 .449 1 1v24c0 .552-.449 1-1 1h-29c-.265 0-.52.105-.707.293l-6.293 6.293v-5.586c0-.553-.448-1-1-1h-3c-.551 0-1-.448-1-1v-24c0-.551.449-1 1-1h11v-2h-11c-1.654 0-3 1.346-3 3v24c0 1.654 1.346 3 3 3h2v7c0 .404.244.77.617.924.124.052.254.076.383.076.26 0 .516-.102.707-.293l7.707-7.707h28.586c1.654 0 3-1.346 3-3v-24c0-1.654-1.346-3-3-3z"/><path d="m60 1h-40c-1.654 0-3 1.346-3 3v24c0 1.654 1.346 3 3 3h23v-2h-23c-.551 0-1-.449-1-1v-24c0-.551.449-1 1-1h40c.551 0 1 .449 1 1v24c0 .551-.449 1-1 1h-2c-.552 0-1 .448-1 1v5.586l-6.293-6.293c-.187-.188-.442-.293-.707-.293h-1v2h.586l7.707 7.707c.191.191.447.293.707.293.129 0 .259-.024.383-.076.373-.154.617-.52.617-.924v-7h1c1.654 0 3-1.346 3-3v-24c0-1.654-1.346-3-3-3z"/><path d="m46.949 5.316-1.897-.633-1.773 5.317h-3.892l1.561-4.684-1.897-.633-1.772 5.317h-5.279v2h4.612l-1.333 4h-3.279v2h2.612l-1.561 4.684 1.897.633 1.773-5.317h3.892l-1.561 4.684 1.897.633 1.772-5.317h5.279v-2h-4.612l1.333-4h3.279v-2h-2.612zm-5.67 10.684h-3.892l1.333-4h3.892z"/><path d="m17.051 50.684 1.897.633 1.773-5.317h3.892l-1.561 4.684 1.897.633 1.772-5.317h5.279v-2h-4.612l1.333-4h3.279v-2h-2.612l1.561-4.684-1.897-.633-1.773 5.317h-3.892l1.561-4.684-1.897-.633-1.772 5.317h-5.279v2h4.612l-1.333 4h-3.279v2h2.612zm5.67-10.684h3.892l-1.333 4h-3.892z"/></g></svg>