<svg height="512" viewBox="0 0 512 512" width="512" xmlns="http://www.w3.org/2000/svg"><path d="m414.4 355.811h-.007a7.978 7.978 0 0 0 -6.393-3.2h-45.421a55.643 55.643 0 0 0 5.421-23.971v-.029-35.035c0-11.5 5.559-22.679 15.249-30.669 28.311-23.339 43.059-57.826 40.464-94.617-3.613-51.177-43.013-94.175-93.683-102.239a112.055 112.055 0 0 0 -126.6 138.1l-28.43 12.183-45.688-7.614a7.937 7.937 0 0 0 -1.315-.109h-47.997a24.027 24.027 0 0 0 -24 24v47.689l-15.977 207.7a8 8 0 0 0 7.977 8.611h24a8 8 0 0 0 7.927-6.919l15.852-116.256 14.99 116.2a8 8 0 0 0 7.934 6.977h25.297a8 8 0 0 0 7.977-8.613l-15.977-207.7v-16.751l49.132-7.019a7.994 7.994 0 0 0 4.525-2.262l24.055-24.056a112.981 112.981 0 0 0 27.088 32.733c9.659 7.963 15.2 19.124 15.2 30.623v35.043.029a55.643 55.643 0 0 0 5.421 23.971h-45.421a7.978 7.978 0 0 0 -6.393 3.2h-.007l-48 64a8 8 0 0 0 6.4 12.8h40v56a8 8 0 0 0 8 8h192a8 8 0 0 0 8-8v-56h40a8 8 0 0 0 6.4-12.8zm-19.344 12.8-24 48h-118.112l-24-48zm-123.056-64h80v16.029h-80zm-146.263 176-21.8-169.024a8 8 0 0 0 -7.906-6.976h-.031a8 8 0 0 0 -7.927 6.919l-23.056 169.081h-8.378l14.769-192h49.184l14.769 192zm54.492-239.543-53.361 7.623a8 8 0 0 0 -6.868 7.92v16h-48v-40a8.009 8.009 0 0 1 8-8h47.338l47.347 7.891a8.01 8.01 0 0 0 4.466-.538l17.819-7.636zm70.75 9.532a96.839 96.839 0 0 1 -25.4-32.251l12.081-12.081a8 8 0 0 0 -8.808-13.01l-10.5 4.5a96.039 96.039 0 0 1 109.163-115.906c43.4 6.907 77.146 43.733 80.237 87.564a95.227 95.227 0 0 1 -34.681 81.146c-12.024 9.914-19.444 23.567-20.833 38.049h-32.238v-75.667l43.578-21.789a8 8 0 0 0 4.422-7.155v-24a8 8 0 0 0 -8-8h-104a8 8 0 0 0 -8 8v24a8 8 0 0 0 3.562 6.656l24 16 8.876-13.312-20.438-13.625v-11.719h88v11.056l-43.578 21.789a8 8 0 0 0 -4.422 7.155v80.611h-32.236c-1.384-14.482-8.787-28.121-20.785-38.011zm21.83 86.04h78.382a39.517 39.517 0 0 1 -7.258 15.971h-63.866a39.517 39.517 0 0 1 -7.258-15.971zm-88.809 79.971 24-32v32zm40 64v-86.111l16.845 33.689a8 8 0 0 0 7.155 4.422h128a8 8 0 0 0 7.155-4.423l16.845-33.688v86.112zm192-64v-32l24 32z"/><path d="m96 200.611a32 32 0 1 0 -32-32 32.036 32.036 0 0 0 32 32zm0-48a16 16 0 1 1 -16 16 16.019 16.019 0 0 1 16-16z"/><path d="m296.049 24h32v16h-32z" transform="matrix(.003 -1 1 .003 279.097 343.95)"/><path d="m403.515 68.554h32v16h-32z" transform="matrix(.709 -.705 .705 .709 68 317.988)"/><path d="m456 168.049h16v32h-16z" transform="matrix(.003 -1 1 .003 278.536 647.485)"/><path d="m411.446 275.515h16v32h-16z" transform="matrix(.709 -.705 .705 .709 -83.555 380.429)"/><path d="m188.485 283.445h32v16h-32z" transform="matrix(.709 -.705 .705 .709 -146.002 228.885)"/><path d="m152 167.951h16v32h-16z" transform="matrix(.003 -1 1 .003 -24.441 343.386)"/><path d="m196.554 60.485h16v32h-16z" transform="matrix(.709 -.705 .705 .709 5.552 166.432)"/></svg>