<svg id="Capa_1" enable-background="new 0 0 497.883 497.883" height="512" viewBox="0 0 497.883 497.883" width="512" xmlns="http://www.w3.org/2000/svg"><path d="m435.647 155.588-62.235 93.353h31.118c0 85.786-69.802 155.588-155.588 155.588-52.788 0-99.368-26.561-127.511-66.883l-36.282 54.424c39.959 45.668 98.487 74.694 163.793 74.694 120.11 0 217.823-97.714 217.823-217.823h31.118z"/><path d="m93.353 248.941c0-85.786 69.802-155.588 155.588-155.588 52.788 0 99.368 26.561 127.511 66.883l36.282-54.423c-39.959-45.668-98.487-74.694-163.793-74.694-120.11 0-217.823 97.714-217.823 217.823h-31.118l62.235 93.353 62.235-93.353z"/></svg>