<?xml version="1.0" encoding="iso-8859-1"?>
<!-- Generator: Adobe Illustrator 19.0.0, SVG Export Plug-In . SVG Version: 6.00 Build 0)  -->
<svg version="1.1" id="Capa_1" xmlns="http://www.w3.org/2000/svg" xmlns:xlink="http://www.w3.org/1999/xlink" x="0px" y="0px"
	 viewBox="0 0 512.001 512.001" style="enable-background:new 0 0 512.001 512.001;" xml:space="preserve">
<g>
	<g>
		<path d="M40.307,40.307v65.498h65.498V40.307H40.307z M90.69,90.69H55.422V55.422H90.69V90.69z"/>
	</g>
</g>
<g>
	<g>
		<path d="M130.996,40.307v65.498h337.567V40.307H130.996z M453.449,90.69H146.111V55.422h307.337V90.69z"/>
	</g>
</g>
<g>
	<g>
		<path d="M40.307,135.531v65.498h65.498v-65.498H40.307z M90.69,185.914H55.422v-35.268H90.69V185.914z"/>
	</g>
</g>
<g>
	<g>
		<path d="M130.996,135.531v65.498h337.567v-65.498H130.996z M453.449,185.914H146.111v-35.268h307.337V185.914z"/>
	</g>
</g>
<g>
	<g>
		<path d="M40.307,230.755v65.498h65.498v-65.498H40.307z M90.69,281.138H55.422V245.87H90.69V281.138z"/>
	</g>
</g>
<g>
	<g>
		<path d="M130.996,230.755v65.498h199.517v-65.498H130.996z M315.399,281.138H146.111V245.87h169.287V281.138z"/>
	</g>
</g>
<g>
	<g>
		<path d="M465.687,355.245l-31.379,31.379V230.755H368.81v155.868l-31.379-31.379l-46.314,46.314l110.442,110.442l110.442-110.442
			L465.687,355.245z M312.493,401.559l24.939-24.939l46.494,46.494V245.87h35.268v177.244l46.494-46.494l24.939,24.939
			l-89.066,89.066L312.493,401.559z"/>
	</g>
</g>
<g>
	<g>
		<polygon points="0,0 0,408.104 260.066,408.104 260.066,392.989 15.115,392.989 15.115,15.115 493.755,15.115 493.755,348.148 
			508.87,348.148 508.87,0 		"/>
	</g>
</g>
<g>
	<g>
		<rect x="37.787" y="446.395" width="15.115" height="15.115"/>
	</g>
</g>
<g>
	<g>
		<rect x="7.557" y="446.395" width="15.115" height="15.115"/>
	</g>
</g>
<g>
	<g>
		<rect x="68.017" y="446.395" width="15.115" height="15.115"/>
	</g>
</g>
<g>
	<g>
		<rect x="98.247" y="446.395" width="15.115" height="15.115"/>
	</g>
</g>
<g>
	<g>
		<rect x="188.937" y="446.395" width="15.115" height="15.115"/>
	</g>
</g>
<g>
	<g>
		<rect x="219.167" y="446.395" width="15.115" height="15.115"/>
	</g>
</g>
<g>
	<g>
		<rect x="128.477" y="446.395" width="15.115" height="15.115"/>
	</g>
</g>
<g>
	<g>
		<rect x="158.707" y="446.395" width="15.115" height="15.115"/>
	</g>
</g>
<g>
</g>
<g>
</g>
<g>
</g>
<g>
</g>
<g>
</g>
<g>
</g>
<g>
</g>
<g>
</g>
<g>
</g>
<g>
</g>
<g>
</g>
<g>
</g>
<g>
</g>
<g>
</g>
<g>
</g>
</svg>
